<?xml version="1.0" encoding="utf-8"?>
<!-- Generator: Adobe Illustrator 21.0.0, SVG Export Plug-In . SVG Version: 6.00 Build 0)  -->
<svg version="1.1" id="Layer_1" xmlns="http://www.w3.org/2000/svg" xmlns:xlink="http://www.w3.org/1999/xlink" x="0px" y="0px"
	 viewBox="0 0 19 14.9" style="enable-background:new 0 0 19 14.9;" xml:space="preserve">
<style type="text/css">
	.st0{fill:#1F67B4;}
</style>
<g>
	<path class="st0" d="M19,13.2c0,0.9-0.8,1.7-1.7,1.7H1.7c-0.9,0-1.7-0.8-1.7-1.7V1.7C0,0.8,0.8,0,1.7,0h15.6C18.2,0,19,0.8,19,1.7
		V13.2z M17.3,1.3H1.7c-0.2,0-0.3,0.2-0.3,0.3c0,1.2,0.6,2.3,1.6,3C4.4,5.7,5.8,6.8,7.3,8c0.6,0.5,1.6,1.4,2.3,1.4l0,0l0,0
		c0.7,0,1.8-1,2.3-1.4c1.4-1.1,2.8-2.2,4.3-3.4c0.7-0.5,1.6-1.7,1.6-2.6C17.6,1.8,17.7,1.3,17.3,1.3z M17.6,5
		c-0.2,0.3-0.5,0.5-0.7,0.7c-1.5,1.2-3,2.4-4.5,3.6c-0.8,0.7-1.8,1.5-2.9,1.5l0,0l0,0c-1.1,0-2.1-0.8-2.9-1.5
		c-1.5-1.2-3-2.4-4.5-3.6C1.8,5.5,1.6,5.3,1.4,5v8.1c0,0.2,0.2,0.3,0.3,0.3h15.6c0.2,0,0.3-0.2,0.3-0.3L17.6,5L17.6,5z"/>
</g>
</svg>
