<?xml version="1.0" encoding="utf-8"?>
<!-- Generator: Adobe Illustrator 21.0.0, SVG Export Plug-In . SVG Version: 6.00 Build 0)  -->
<svg version="1.1" id="Layer_1" xmlns="http://www.w3.org/2000/svg" xmlns:xlink="http://www.w3.org/1999/xlink" x="0px" y="0px"
	 viewBox="0 0 245 92" style="enable-background:new 0 0 245 92;" xml:space="preserve">
<style type="text/css">
	.st0{fill:#242736;}
	.st1{fill:#1F67B4;}
</style>
<g>
	<path class="st0" d="M53.9,46.6h5.7v11.5c-3.2,3.5-7.7,5.2-13.6,5.2c-5,0-9.1-1.6-12.5-4.9c-3.3-3.3-5-7.4-5-12.4s1.7-9.2,5.1-12.5
		c3.4-3.3,7.5-5,12.4-5s8.8,1.4,12,4.2L55,37c-1.3-1.1-2.6-1.9-4-2.3c-1.3-0.4-2.9-0.6-4.6-0.6c-3.4,0-6.2,1.1-8.5,3.3
		s-3.5,5.1-3.5,8.6c0,3.6,1.1,6.4,3.4,8.6c2.2,2.2,5,3.2,8.1,3.2c3.2,0,5.8-0.7,8-2.1L53.9,46.6L53.9,46.6z"/>
	<path class="st0" d="M90.6,29.4v5.3H72.7v8.9h16.1v5H72.7v9h18.5v5.3H67V29.3h23.6V29.4z"/>
	<path class="st0" d="M103.2,55.3l-3.4,7.6h-6l14.8-33.6h6l14.8,33.6h-6l-3.4-7.6H103.2z M117.7,50.1l-6.1-13.8l-6.1,13.8H117.7z"/>
	<path class="st0" d="M160.8,40.3c0,5.5-2.4,9-7.2,10.5l8.8,12.2h-7.2l-8-11.3h-7.4V63H134V29.4h12.5c5.1,0,8.8,0.9,11,2.6
		C159.7,33.7,160.8,36.5,160.8,40.3z M153.3,45c1.2-1,1.7-2.6,1.7-4.8s-0.6-3.7-1.8-4.5s-3.3-1.2-6.3-1.2h-7.2v12h7.1
		C149.9,46.5,152.1,46,153.3,45z"/>
	<path class="st1" d="M186.5,62.9h-18.4V30h5.3v28.1h13.1L186.5,62.9L186.5,62.9z"/>
	<path class="st1" d="M188.1,62.9l8.1-32.9h10.6l8.2,32.9h-5.4l-1.8-7.1h-12.6l-1.8,7.1H188.1z M200.3,34.5l-4.1,16.7h10.5l-4-16.7
		L200.3,34.5L200.3,34.5z"/>
	<path class="st1" d="M219.7,30.1h12.5c3.4,0,5.9,0.7,7.5,2c1.7,1.4,2.5,3.5,2.5,6.5c0,2-0.3,3.5-0.9,4.6c-0.6,1.1-1.6,2-3,2.8
		c3.1,1.2,4.7,3.8,4.7,7.6c0,6.2-3.5,9.3-10.5,9.3h-12.9V30.1H219.7z M231.9,34.7H225v9.4h7.1c3.1,0,4.7-1.6,4.7-4.8
		C236.7,36.2,235.1,34.7,231.9,34.7z M232.1,48.6H225v9.7h7.2c1.8,0,3.1-0.4,4-1.1s1.3-2,1.3-3.8s-0.5-3-1.5-3.8
		S233.7,48.6,232.1,48.6z"/>
	<path class="st1" d="M58.8,68.7c-2.2,1.3-4.5,2.2-6.9,2.8l-1.4,0.3l-1.2,12.7v0.2c0,0.6-0.5,1-1,1H42c-0.6,0-1-0.5-1-1l-1.1-12.9
		l-1.4-0.4c-2.4-0.6-4.7-1.6-6.9-2.9l-1.2-0.7l-9.8,8.1L20.5,76c-0.3,0.3-0.6,0.3-0.7,0.3l0,0c-0.2,0-0.5,0-0.7-0.3l-4.5-4.5
		c-0.3-0.3-0.3-0.6-0.3-0.7c0-0.3,0.1-0.5,0.3-0.7l8.3-9.8l-0.7-1.2c-1.3-2.2-2.3-4.5-2.9-7l-0.4-1.4L6.4,49.5H6.2c-0.6,0-1-0.5-1-1
		v-6.4c0-0.6,0.5-1,1-1L18.8,40l0.3-1.4c0.6-2.5,1.6-4.9,2.9-7.1l0.7-1.2l-7.9-9.5l-0.1-0.1c-0.3-0.3-0.3-0.6-0.3-0.7
		c0-0.2,0-0.5,0.3-0.7l4.5-4.5c0.4-0.4,1.1-0.4,1.5,0l9.6,8.1l1.2-0.7c2.3-1.3,4.7-2.4,7.2-3l1.4-0.3l1.1-12.2V6.5c0-0.6,0.5-1,1-1
		h6.4c0.6,0,1,0.5,1,1l1,12.4l1.4,0.4c2.5,0.6,4.8,1.6,7,2.9v-4.6c-1.5-0.7-3-1.4-4.6-1.9l-0.8-9.4c-0.1-2.7-2.3-4.9-5-4.9h-6.4
		c-2.7,0-5,2.2-5,4.9l-0.9,9.4c-2,0.6-3.8,1.4-5.7,2.3l-7.2-6.1c-2-1.9-5.1-1.9-7.1,0.1l-4.5,4.5c-1,0.9-1.5,2.2-1.5,3.6
		c0,1.3,0.5,2.6,1.4,3.5l6.1,7.3c-0.9,1.8-1.7,3.6-2.3,5.6l-9.6,0.8c-2.7,0.1-4.9,2.3-4.9,5v6.4c0,2.7,2.2,5,4.9,5l9.6,0.9
		c0.6,1.9,1.3,3.7,2.3,5.4l-6.3,7.5c-0.9,0.9-1.4,2.2-1.4,3.5s0.5,2.6,1.5,3.6l4.5,4.5c0.9,1,2.2,1.5,3.6,1.5c1.3,0,2.6-0.5,3.5-1.4
		l7.6-6.3c1.7,0.9,3.5,1.6,5.3,2.2l0.8,9.8c0.1,2.7,2.3,4.9,5,4.9h6.4c2.7,0,5-2.2,5-4.9l0.9-9.8c1.6-0.5,3.2-1.1,4.8-1.9v-4.5
		L58.8,68.7z"/>
</g>
</svg>
